<svg xmlns="http://www.w3.org/2000/svg" width="32.62" height="31.526" viewBox="0 0 32.62 31.526">
  <g id="Group_10" data-name="Group 10" transform="translate(0)">
    <path id="XMLID_195_" d="M126.828,213.468h6.766v21.058h-6.766Zm3.4-10.468a3.8,3.8,0,1,1-3.924,3.8,3.867,3.867,0,0,1,3.924-3.8" transform="translate(-126.3 -203)" fill="#57bdbb"/>
    <path id="XMLID_192_" d="M218.1,285.311h6.476V288.2h.088a7.15,7.15,0,0,1,6.4-3.4c6.841,0,8.111,4.358,8.111,10.03v11.539h-6.753V296.132c0-2.447-.038-5.587-3.509-5.587-3.521,0-4.049,2.666-4.049,5.4v10.42h-6.753l-.013-21.058Z" transform="translate(-206.556 -274.843)" fill="#57bdbb"/>
  </g>
</svg>
