<?xml version="1.0" encoding="UTF-8"?>
<svg id="Layer_1" data-name="Layer 1" xmlns="http://www.w3.org/2000/svg" viewBox="0 0 511.57 165.69">
  <defs>
    <style>
      .cls-1 {
        fill: #fff;
      }
    </style>
  </defs>
  <path class="cls-1" d="M55.78,109.91V30.95h9.91V100.66h36.73v9.24H55.78Z"/>
  <path class="cls-1" d="M150.87,110.69c-5.01,0-8.13-3.79-8.13-8.58h-.22c-3.23,5.68-10.25,9.24-18.15,9.24-12.92,0-19.38-8.69-19.38-17.37,0-7.24,4.68-16.7,20.05-17.6l17.15-1v-4.12c0-2.78-.33-6.24-2.9-8.58-1.89-1.78-4.68-2.89-9.24-2.89-5.12,0-8.35,1.45-10.24,3.34-1.78,1.78-2.78,4.01-2.78,6.79h-9.24c.11-5.12,2.01-8.8,4.9-11.8,3.79-4.01,10.47-6.01,17.37-6.01,10.91,0,17.15,4.68,19.82,10.8,1.11,2.56,1.67,5.46,1.67,8.69v27.28c0,3.01,1.22,3.79,3.12,3.79,1,0,2.45-.33,2.45-.33v7.02c-2,1-3.9,1.34-6.24,1.34Zm-8.69-27.95l-15.15,.89c-5.68,.33-12.36,3.01-12.36,10.13,0,5.01,3.12,9.69,11.14,9.69,4.34,0,8.58-1.45,11.58-4.57,3.34-3.45,4.79-8.13,4.79-12.81v-3.34Z"/>
  <path class="cls-1" d="M199.31,109.91v-35.75c0-8.46-3.45-13.48-12.36-13.48-5.46,0-9.8,3.56-12.25,8.69-1.89,4.12-2,10.02-2,14.37v26.17h-9.47V53.56h8.24l.78,8.46c2.9-6.46,10.69-9.91,17.04-9.91,12.81,0,19.49,7.68,19.49,20.71v37.08h-9.47Z"/>
  <path class="cls-1" d="M262.79,129.62c-5.46,5.35-14.81,6.57-22.72,6.57-7.46,0-15.93-1.11-21.38-6.57-2.34-2.34-4.01-5.57-4.01-10.02,0-5.9,3.56-10.25,8.02-12.47-3.79-1.45-6.57-5.12-6.57-9.47,0-5.01,3.23-8.91,7.46-10.91-4.12-3.68-6.46-9.24-6.46-14.59,0-6.13,2.12-10.36,5.34-13.7,3.9-4.01,9.24-6.35,16.71-6.35,5.34,0,9.47,1.23,12.92,3.34,1.89-5.01,6.24-7.91,11.58-7.91,.89,0,1.89,.11,2.78,.22v7.68c-.56-.11-1.34-.11-2.12-.11-3.67,0-6.35,2-6.9,5.12,2.34,3.01,3.68,6.68,3.68,11.69,0,5.35-2.01,10.02-5.12,13.48-3.68,4.01-9.35,6.68-16.82,6.68-3.79,0-5.9-.33-9.47-1.56-2.12,.67-4.57,2.34-4.79,5.01-.33,4.9,4.9,5.46,8.46,5.57,3.67,.11,11.14,0,11.14,0,6.68,0,14.14,1.34,18.6,5.9,2.67,2.67,4.45,6.35,4.45,11.03s-2.12,8.69-4.79,11.36Zm-22.16-20.27h-10.24c-3.79,1.22-7.13,4.57-7.13,8.91,0,2.56,.89,4.45,2.34,5.9,3.67,3.68,10.13,3.9,15.03,3.9s11.81-.45,15.37-4.01c1.45-1.45,2.34-3.34,2.34-5.79,0-9.58-10.58-8.91-17.71-8.91Zm-1.56-49.56c-7.68,0-12.81,5.23-12.81,12.36s4.79,12.58,12.81,12.58,12.81-5.46,12.81-12.58-4.79-12.36-12.81-12.36Z"/>
  <path class="cls-1" d="M327.38,72.93c0,7.24-1.78,16.7-5.46,21.94l13.48,15.03h-12.03l-6.79-7.68c-5.57,6.35-14.14,9.13-22.5,9.13-13.59,0-24.72-8.69-24.72-22.83,0-8.24,4.23-15.37,11.14-19.71l3.9-2.45c-5.12-5.68-9.35-10.25-9.35-18.49,0-10.91,8.46-18.37,19.93-18.37s20.16,7.13,20.16,18.71c0,7.46-3.67,13.59-10.13,17.48-1.89,1.11-3.79,2.45-5.68,3.56l16.37,18.49c3.12-5.68,2.78-16.37,2.78-22.94h17.04v8.13h-8.13Zm-37.2-.22l-4.57,2.9c-4.34,2.9-6.79,7.46-6.79,12.7,0,8.35,6.46,14.25,14.7,14.25,6.91,0,12.7-1.56,17.04-7.13l-20.38-22.72Zm4.57-35.19c-6.24,0-10.47,4.23-10.47,10.25,0,6.35,5.12,10.69,9.02,15.03,6.24-3.45,12.58-6.24,12.58-14.48,0-6.57-4.01-10.8-11.14-10.8Z"/>
  <path class="cls-1" d="M394.09,103c-4.79,4.79-12.58,8.46-21.16,8.46-7.91,0-15.7-2.9-21.38-8.46-8.58-8.35-9.91-19.93-9.91-32.52s1.34-24.17,9.91-32.52c5.68-5.57,13.47-8.46,21.38-8.46,8.57,0,16.26,3.34,21.05,8.13,4.57,4.68,7.46,10.69,7.8,18.04h-10.25c-.11-4.34-1.78-8.13-4.34-11.03-3.12-3.45-8.24-5.79-14.25-5.79-5.35,0-10.58,2.12-14.37,6.01-6.46,6.68-6.68,17.37-6.68,25.61s.22,18.93,6.68,25.61c3.79,3.9,9.02,6.01,14.37,6.01,6.01,0,11.25-2.56,14.37-6.01,2.56-2.9,4.23-7.02,4.34-11.36h10.24c-.33,7.35-3.23,13.59-7.8,18.26Z"/>
  <path class="cls-1" d="M447.77,104.78c-4.12,4.01-9.91,6.57-17.04,6.57s-12.92-2.56-17.04-6.57c-6.13-6.01-8.02-14.14-8.02-23.05s1.89-17.04,8.02-23.05c4.12-4.01,9.91-6.57,17.04-6.57s12.92,2.56,17.04,6.57c6.13,6.01,8.02,14.14,8.02,23.05s-1.89,17.04-8.02,23.05Zm-6.9-40.54c-2.34-2.34-5.68-4.01-10.13-4.01s-7.8,1.67-10.13,4.01c-4.01,4.12-5.24,10.91-5.24,17.48s1.23,13.36,5.24,17.48c2.34,2.34,5.68,4.01,10.13,4.01s7.8-1.67,10.13-4.01c4.01-4.12,5.23-10.91,5.23-17.48s-1.22-13.36-5.23-17.48Z"/>
</svg>