<?xml version="1.0" encoding="UTF-8"?>
<svg id="Layer_1" data-name="Layer 1" xmlns="http://www.w3.org/2000/svg" viewBox="0 0 491.97 247.84">
  <defs>
    <style>
      .cls-1 {
        fill: #57bdba;
      }
    </style>
  </defs>
  <rect class="cls-1" x="45.92" y="46.84" width="197.39" height="17.48" transform="translate(-7.72 27.37) rotate(-10.53)"/>
  <g>
    <path class="cls-1" d="M54.73,193.1V115.63h9.73v68.4h34.81v9.07H54.73Z"/>
    <path class="cls-1" d="M146.8,193.87c-4.92,0-7.98-3.72-7.98-8.41h-.22c-3.17,5.57-10.05,9.07-17.81,9.07-12.68,0-19.01-8.52-19.01-17.05,0-7.1,4.59-16.39,19.67-17.26l16.83-.98v-4.04c0-2.73-.33-6.12-2.84-8.41-1.86-1.75-4.59-2.84-9.07-2.84-5.03,0-8.2,1.42-10.05,3.28-1.75,1.75-2.73,3.93-2.73,6.67h-9.07c.11-5.03,1.97-8.63,4.81-11.58,3.71-3.93,10.27-5.9,17.05-5.9,10.71,0,16.83,4.59,19.45,10.6,1.09,2.51,1.64,5.35,1.64,8.52v26.77c0,2.95,1.2,3.71,3.06,3.71,.98,0,2.4-.33,2.4-.33v6.88c-1.97,.98-3.82,1.31-6.12,1.31Zm-8.52-27.43l-14.86,.87c-5.57,.33-12.13,2.95-12.13,9.94,0,4.92,3.06,9.51,10.93,9.51,4.26,0,8.41-1.42,11.36-4.48,3.28-3.39,4.7-7.98,4.7-12.57v-3.28Z"/>
    <path class="cls-1" d="M194.34,193.1v-35.08c0-8.3-3.39-13.22-12.13-13.22-5.35,0-9.62,3.5-12.02,8.52-1.86,4.04-1.97,9.83-1.97,14.1v25.68h-9.29v-55.29h8.09l.77,8.3c2.84-6.34,10.49-9.72,16.72-9.72,12.57,0,19.12,7.54,19.12,20.32v36.39h-9.29Z"/>
    <path class="cls-1" d="M256.62,212.44c-5.35,5.24-14.53,6.45-22.29,6.45-7.32,0-15.63-1.09-20.98-6.45-2.3-2.3-3.93-5.46-3.93-9.83,0-5.79,3.5-10.05,7.87-12.24-3.72-1.42-6.45-5.03-6.45-9.29,0-4.92,3.17-8.74,7.32-10.71-4.04-3.61-6.34-9.07-6.34-14.31,0-6.01,2.08-10.16,5.24-13.44,3.82-3.93,9.07-6.23,16.39-6.23,5.24,0,9.29,1.2,12.68,3.28,1.86-4.92,6.12-7.76,11.36-7.76,.87,0,1.86,.11,2.73,.22v7.54c-.55-.11-1.31-.11-2.08-.11-3.61,0-6.23,1.97-6.77,5.03,2.29,2.95,3.61,6.56,3.61,11.47,0,5.24-1.97,9.83-5.03,13.22-3.61,3.93-9.18,6.56-16.5,6.56-3.72,0-5.79-.33-9.29-1.53-2.08,.66-4.48,2.29-4.7,4.92-.33,4.81,4.81,5.35,8.3,5.46,3.61,.11,10.93,0,10.93,0,6.56,0,13.88,1.31,18.25,5.79,2.62,2.62,4.37,6.23,4.37,10.82s-2.08,8.52-4.7,11.15Zm-21.75-19.89h-10.05c-3.72,1.2-6.99,4.48-6.99,8.74,0,2.51,.87,4.37,2.29,5.79,3.61,3.61,9.94,3.82,14.75,3.82s11.58-.44,15.08-3.93c1.42-1.42,2.29-3.28,2.29-5.68,0-9.4-10.38-8.74-17.37-8.74Zm-1.53-48.63c-7.54,0-12.57,5.14-12.57,12.13s4.7,12.35,12.57,12.35,12.57-5.35,12.57-12.35-4.7-12.13-12.57-12.13Z"/>
    <path class="cls-1" d="M320,156.83c0,7.1-1.75,16.39-5.35,21.53l13.22,14.75h-11.8l-6.67-7.54c-5.46,6.23-13.88,8.96-22.07,8.96-13.33,0-24.26-8.52-24.26-22.4,0-8.09,4.15-15.08,10.93-19.34l3.82-2.4c-5.03-5.57-9.18-10.05-9.18-18.14,0-10.71,8.31-18.03,19.56-18.03s19.78,6.99,19.78,18.36c0,7.32-3.61,13.33-9.94,17.16-1.86,1.09-3.72,2.4-5.57,3.5l16.06,18.14c3.06-5.57,2.73-16.06,2.73-22.51h16.72v7.98h-7.98Zm-36.5-.22l-4.48,2.84c-4.26,2.84-6.67,7.32-6.67,12.46,0,8.19,6.34,13.99,14.42,13.99,6.78,0,12.46-1.53,16.72-6.99l-20-22.29Zm4.48-34.53c-6.12,0-10.27,4.15-10.27,10.05,0,6.23,5.03,10.49,8.85,14.75,6.12-3.39,12.35-6.12,12.35-14.2,0-6.45-3.93-10.6-10.93-10.6Z"/>
    <path class="cls-1" d="M385.45,186.33c-4.7,4.7-12.35,8.3-20.76,8.3-7.76,0-15.41-2.84-20.98-8.3-8.41-8.19-9.73-19.56-9.73-31.91s1.31-23.71,9.73-31.91c5.57-5.46,13.22-8.3,20.98-8.3,8.41,0,15.95,3.28,20.65,7.98,4.48,4.59,7.32,10.49,7.65,17.7h-10.05c-.11-4.26-1.75-7.98-4.26-10.82-3.06-3.39-8.09-5.68-13.99-5.68-5.25,0-10.38,2.08-14.1,5.9-6.34,6.56-6.56,17.05-6.56,25.13s.22,18.58,6.56,25.13c3.72,3.82,8.85,5.9,14.1,5.9,5.9,0,11.04-2.51,14.1-5.9,2.51-2.84,4.15-6.88,4.26-11.15h10.05c-.33,7.21-3.17,13.33-7.65,17.92Z"/>
    <path class="cls-1" d="M438.12,188.08c-4.04,3.93-9.72,6.45-16.72,6.45s-12.68-2.51-16.72-6.45c-6.01-5.9-7.87-13.88-7.87-22.62s1.86-16.72,7.87-22.62c4.04-3.93,9.73-6.45,16.72-6.45s12.68,2.51,16.72,6.45c6.01,5.9,7.87,13.88,7.87,22.62s-1.86,16.72-7.87,22.62Zm-6.77-39.77c-2.29-2.29-5.57-3.93-9.94-3.93s-7.65,1.64-9.94,3.93c-3.93,4.04-5.14,10.71-5.14,17.16s1.2,13.11,5.14,17.16c2.29,2.29,5.57,3.93,9.94,3.93s7.65-1.64,9.94-3.93c3.93-4.04,5.14-10.71,5.14-17.16s-1.2-13.11-5.14-17.16Z"/>
  </g>
</svg>