<svg xmlns="http://www.w3.org/2000/svg" width="35.126" height="28.546" viewBox="0 0 35.126 28.546">
  <path id="if_03-twitter_104501" d="M38.7,13.705a14.339,14.339,0,0,1-4.139,1.134,7.219,7.219,0,0,0,3.169-3.987,14.426,14.426,0,0,1-4.576,1.75,7.212,7.212,0,0,0-12.279,6.573A20.462,20.462,0,0,1,6.02,11.645a7.216,7.216,0,0,0,2.23,9.622,7.186,7.186,0,0,1-3.264-.9c0,.03,0,.061,0,.091a7.212,7.212,0,0,0,5.781,7.066,7.245,7.245,0,0,1-1.9.252,7.14,7.14,0,0,1-1.356-.13,7.214,7.214,0,0,0,6.732,5A14.542,14.542,0,0,1,3.574,35.634a20.393,20.393,0,0,0,11.047,3.238c13.256,0,20.5-10.981,20.5-20.5q0-.468-.02-.933A14.6,14.6,0,0,0,38.7,13.705Z" transform="translate(-3.574 -10.326)" fill="#57bdbb"/>
</svg>
