<?xml version="1.0" encoding="utf-8"?>
<!-- Generator: Adobe Illustrator 26.3.1, SVG Export Plug-In . SVG Version: 6.00 Build 0)  -->
<svg version="1.1" id="Layer_1" xmlns="http://www.w3.org/2000/svg" xmlns:xlink="http://www.w3.org/1999/xlink" x="0px" y="0px"
	 viewBox="0 0 1689 95.3" style="enable-background:new 0 0 1689 95.3;" xml:space="preserve">
<style type="text/css">
	.st0{clip-path:url(#SVGID_00000168819801887042848740000014216784532834977716_);}
	.st1{fill:#412777;}
</style>
<g id="Group_25" transform="translate(0 0)">
	<g>
		<defs>
			<rect id="SVGID_1_" width="1689" height="95.3"/>
		</defs>
		<clipPath id="SVGID_00000137813333821171928310000017216044363096195758_">
			<use xlink:href="#SVGID_1_"  style="overflow:visible;"/>
		</clipPath>
		
			<g id="Group_24" transform="translate(0 0)" style="clip-path:url(#SVGID_00000137813333821171928310000017216044363096195758_);">
			<path id="Path_16" class="st1" d="M1477.9,95.3c-57.2,0-87.2-18.1-113.8-34c-25.2-15.2-49-29.5-97.4-29.5s-72.2,14.3-97.4,29.5
				c-26.5,16-56.6,34-113.7,34s-87.2-18.1-113.7-34c-25.2-15.2-49-29.5-97.4-29.5s-72.2,14.3-97.4,29.5c-26.5,16-56.6,34-113.7,34
				s-87.2-18.1-113.7-34c-25.2-15.2-49-29.5-97.4-29.5s-72.2,14.3-97.4,29.5c-26.5,16-56.6,34-113.7,34s-87.2-18.1-113.7-34
				C72.2,46.1,48.4,31.7,0,31.7V0c57.2,0,87.2,18.1,113.7,34c25.2,15.2,49,29.5,97.4,29.5s72.2-14.3,97.4-29.5
				C335,18.1,365,0,422.2,0S509.5,18.1,536,34c25.2,15.2,49,29.5,97.4,29.5s72.2-14.3,97.4-29.5c26.5-16,56.6-34,113.7-34
				s87.2,18.1,113.7,34c25.2,15.2,49,29.5,97.4,29.5c48.4,0,72.2-14.3,97.4-29.5c26.5-16,56.6-34,113.8-34s87.2,18.1,113.8,34
				c25.2,15.2,49,29.5,97.4,29.5s72.2-14.3,97.4-29.5c26.5-16,56.6-34,113.8-34v31.7c-48.4,0-72.2,14.3-97.4,29.5
				C1565.1,77.2,1535.1,95.3,1477.9,95.3"/>
		</g>
	</g>
</g>
</svg>
